<svg viewBox="0 0 16 15" fill="black" xmlns="http://www.w3.org/2000/svg">
<path d="M14.6182 1.79796C13.7854 0.965244 12.683 0.510114 11.5064 0.510114C10.3298 0.510114 9.22402 0.968616 8.3913 1.80134L7.9564 2.23624L7.51476 1.79459C6.68204 0.961873 5.57287 0.5 4.39627 0.5C3.22305 0.5 2.11725 0.958502 1.2879 1.78785C0.455179 2.62057 -0.00332236 3.72637 4.89781e-05 4.90297C4.89781e-05 6.07956 0.461922 7.18199 1.29464 8.01471L7.62601 14.3461C7.71367 14.4337 7.83166 14.4809 7.94629 14.4809C8.06091 14.4809 8.17891 14.4371 8.26657 14.3495L14.6114 8.02819C15.4441 7.19547 15.9026 6.08968 15.9026 4.91308C15.906 3.73648 15.4509 2.63068 14.6182 1.79796Z"/>
</svg>
